<svg version="1" xmlns="http://www.w3.org/2000/svg" width="933.333" height="933.333" viewBox="0 0 700.000000 700.000000"><path d="M132.7 55.5C115.4 60.3 99.6 75 93.8 91.8l-2.3 6.7v503l2.3 6.5c5.4 15.8 20.2 30.4 35.8 35.6 5.7 1.8 11.5 1.9 220.4 1.9s214.7-.1 220.4-1.9c12.6-4.2 25.5-15.3 32-27.5 7.1-13.6 6.6 8.4 6.6-266.1 0-270.9.4-252.6-5.7-264.8C597.2 73 583.7 61 571 56.5c-5.4-2-9.4-2-219.5-2.2-175.1-.1-214.9.1-218.8 1.2zm430.6 38.7c1.9 1.6 4.6 4.3 5.9 6l2.3 3.3.3 67.7.2 67.8H128v-66.6c0-72.7-.2-70 5.8-75.7 6.5-6.2-11.4-5.7 217.3-5.4l208.6.2 3.6 2.7zm8.7 340.3c0 140.9-.2 159-1.5 162.3-2 4.7-5 7.9-9.7 10.3-3.6 1.8-9.2 1.9-210.8 1.9-201.6 0-207.2-.1-210.8-1.9-4.7-2.4-7.7-5.6-9.7-10.3-1.3-3.3-1.5-21.4-1.5-162.3V276h444v158.5z"/><path d="M175.5 314.6c-4.4 2.2-7.6 5.5-9.1 9.1-1.2 2.7-1.4 23.2-1.4 119.3 0 83.9.3 116.7 1.1 118.3 1.7 3.2 6 7.7 9.1 9.3 2.3 1.2 28.6 1.4 174.8 1.4 125.3 0 172.7-.3 174.3-1.1 3.2-1.7 7.7-6 9.3-9.1 1.2-2.3 1.4-20.8 1.4-119 0-130.4.6-119.9-7.3-126.2l-3.9-3.1-172.6-.2c-155.1-.3-173-.1-175.7 1.3zm322.3 127.6l.2 92.8h-74v-92.3c0-50.8.3-92.7.7-93 .4-.4 16.9-.6 36.7-.5l36.1.3.3 92.7zM276 387v37h-74v-74h74v37zm111 0v37h-74v-74h74v37zM276 498v37h-74v-74h74v37zm111 0v37h-74v-74h74v37z"/></svg>